<?xml version="1.0" encoding="utf-8"?>
<!-- Generator: Adobe Illustrator 14.0.0, SVG Export Plug-In . SVG Version: 6.00 Build 43363)  -->
<!DOCTYPE svg PUBLIC "-//W3C//DTD SVG 1.1//EN" "http://www.w3.org/Graphics/SVG/1.1/DTD/svg11.dtd">
<svg version="1.1" id="Layer_1" xmlns="http://www.w3.org/2000/svg" xmlns:xlink="http://www.w3.org/1999/xlink" x="0px" y="0px"
	 width="256px" height="256px" viewBox="0 0 256 256" enable-background="new 0 0 256 256" xml:space="preserve">
<linearGradient id="SVGID_1_" gradientUnits="userSpaceOnUse" x1="308.252" y1="514.0293" x2="359.7497" y2="221.9703" gradientTransform="matrix(1 0 0 1 -206 -240)">
	<stop  offset="0" style="stop-color:#4CA6CF"/>
	<stop  offset="0.1697" style="stop-color:#3F97BF"/>
	<stop  offset="0.445" style="stop-color:#2E84AB"/>
	<stop  offset="0.7217" style="stop-color:#24799F"/>
	<stop  offset="1" style="stop-color:#21759B"/>
</linearGradient>
<rect fill="url(#SVGID_1_)" width="256" height="256"/>
<g>
	<path fill="#231F20" d="M41.416,199.059c5.36-18.8,13.593-39.152,24.703-61.06c11.962,11.81,22.488,20.819,31.577,27.035
		c1.242,0.854,2.582,1.146,4.021,0.872c1.437-0.271,2.543-1.028,3.321-2.272c0.776-1.164,1.049-2.446,0.816-3.846
		c-0.233-1.397-0.933-2.522-2.098-3.378c-9.478-6.446-20.315-15.807-32.509-28.081c4.894-9.166,10.098-17.829,15.614-25.985
		c13.36,13.75,25.401,24.276,36.122,31.576c1.166,0.857,2.465,1.148,3.904,0.875c1.437-0.271,2.542-1.027,3.321-2.271
		c0.854-1.164,1.146-2.446,0.874-3.846c-0.271-1.396-0.99-2.524-2.156-3.378c-10.953-7.301-22.954-17.867-36.004-31.694
		c7.225-9.631,13.555-16.197,18.993-19.692c4.428-2.64,9.593-3.67,15.497-3.088c5.902,0.582,11.943,2.292,18.121,5.126
		c6.174,2.837,12.292,6.584,18.352,11.246c1.707-2.873,2.348-5.728,1.922-8.565c-0.428-2.835-1.478-5.302-3.146-7.399
		c-1.673-2.098-3.729-4.311-6.177-6.641c-2.446-2.331-4.797-4.447-7.051-6.351c-2.252-1.902-4.156-4.079-5.707-6.525
		c-1.558-2.447-2.293-4.875-2.216-7.282c0.077-4.271,1.554-8.021,4.427-11.245c2.875-3.223,6.295-5.029,10.256-5.418
		c3.961-0.388,8.078,1.088,12.352,4.428c6.368,5.593,10.176,17.051,11.42,34.375c0.389-1.01,1.066-2.972,2.039-5.885
		c0.969-2.913,1.766-5.107,2.389-6.584c0.621-1.474,1.475-3.514,2.563-6.117c1.086-2.602,2.156-4.661,3.204-6.176
		c1.05-1.515,2.272-3.105,3.67-4.777c1.397-1.67,2.953-2.931,4.662-3.787c1.708-0.854,3.534-1.398,5.477-1.632
		c5.36-0.62,10.738,1.497,16.138,6.351c5.398,4.856,7.983,9.963,7.748,15.323c-0.078,3.263-1.379,6.449-3.901,9.555
		c-2.526,3.108-5.651,5.768-9.38,7.982c-3.729,2.213-7.303,4.04-10.721,5.477c-3.42,1.438-6.525,2.504-9.322,3.204
		c1.009,0.078,3.38,0.292,7.107,0.641c3.729,0.349,6.446,0.641,8.156,0.874c1.708,0.233,4.154,0.699,7.343,1.398
		c3.185,0.699,5.669,1.476,7.456,2.33c1.786,0.856,3.631,2.04,5.534,3.555c1.901,1.514,3.321,3.282,4.253,5.301
		c1.632,3.496,1.574,7.632-0.175,12.41c-1.747,4.777-4.408,8.098-7.981,9.961c-2.33,1.166-4.543,1.477-6.642,0.932
		c-2.099-0.542-4.351-1.573-6.759-3.087c-2.408-1.515-4.719-3.3-6.934-5.359c-2.213-2.058-4.584-4.021-7.105-5.885
		c-2.526-1.864-4.954-3.477-7.282-4.836c-2.332-1.358-4.837-2.039-7.519-2.039c-2.68,0-5.263,0.815-7.748,2.447
		c5.595,5.75,10.156,11.633,13.69,17.653c3.535,6.021,5.786,12.041,6.761,18.061c0.969,6.021,0.058,11.36-2.74,16.022
		c-2.098,3.573-5.709,7.825-10.836,12.758c-5.127,4.935-11.109,9.961-17.943,15.088c-6.837,5.13-14.393,10.432-22.663,15.906
		c-8.272,5.478-16.625,10.586-25.053,15.323c-8.43,4.739-16.779,9.127-25.053,13.166c-8.272,4.04-15.828,7.206-22.663,9.497
		c-6.836,2.293-12.816,3.77-17.944,4.43c-5.127,0.658-8.779-0.061-10.952-2.158C35.86,229.469,36.056,217.857,41.416,199.059z"/>
</g>
<g>
	
		<linearGradient id="SVGID_2_" gradientUnits="userSpaceOnUse" x1="239.2451" y1="-171.002" x2="437.5615" y2="-171.002" gradientTransform="matrix(1 0 0 -1 -206 -40)">
		<stop  offset="0" style="stop-color:#4CA6CF"/>
		<stop  offset="0.1697" style="stop-color:#3F97BF"/>
		<stop  offset="0.445" style="stop-color:#2E84AB"/>
		<stop  offset="0.7217" style="stop-color:#24799F"/>
		<stop  offset="1" style="stop-color:#21759B"/>
	</linearGradient>
	<path fill="url(#SVGID_2_)" d="M37.416,198.059c5.36-18.8,13.593-39.152,24.703-61.06c11.962,11.81,22.488,20.819,31.577,27.035
		c1.242,0.854,2.582,1.146,4.021,0.872c1.437-0.271,2.543-1.028,3.321-2.272c0.776-1.164,1.049-2.446,0.816-3.846
		c-0.233-1.397-0.933-2.522-2.098-3.378c-9.478-6.446-20.315-15.807-32.509-28.081c4.894-9.166,10.098-17.829,15.614-25.985
		c13.36,13.75,25.401,24.276,36.122,31.576c1.166,0.857,2.465,1.148,3.904,0.875c1.437-0.271,2.543-1.027,3.321-2.271
		c0.854-1.164,1.146-2.446,0.874-3.846c-0.272-1.397-0.99-2.524-2.156-3.378c-10.953-7.301-22.954-17.867-36.004-31.694
		c7.225-9.631,13.555-16.197,18.993-19.692c4.428-2.64,9.593-3.67,15.497-3.088c5.902,0.582,11.943,2.292,18.121,5.126
		c6.174,2.837,12.292,6.584,18.352,11.246c1.707-2.873,2.348-5.728,1.922-8.565c-0.428-2.835-1.478-5.302-3.146-7.399
		c-1.673-2.098-3.729-4.311-6.177-6.641c-2.446-2.331-4.797-4.447-7.051-6.351c-2.252-1.902-4.156-4.079-5.707-6.525
		c-1.558-2.447-2.293-4.875-2.215-7.282c0.076-4.271,1.553-8.021,4.426-11.245c2.875-3.223,6.295-5.029,10.256-5.418
		c3.961-0.388,8.078,1.088,12.352,4.428c6.368,5.593,10.176,17.051,11.42,34.375c0.389-1.01,1.066-2.972,2.039-5.885
		c0.969-2.913,1.766-5.107,2.389-6.584c0.621-1.474,1.475-3.514,2.563-6.117c1.086-2.602,2.156-4.661,3.204-6.176
		c1.05-1.515,2.272-3.105,3.67-4.777c1.397-1.67,2.953-2.931,4.662-3.787c1.708-0.854,3.534-1.398,5.477-1.632
		c5.36-0.62,10.738,1.497,16.138,6.351c5.398,4.856,7.983,9.963,7.748,15.323c-0.078,3.263-1.379,6.449-3.901,9.555
		c-2.526,3.108-5.651,5.768-9.38,7.982c-3.729,2.213-7.303,4.04-10.721,5.477c-3.42,1.438-6.525,2.504-9.322,3.204
		c1.009,0.078,3.38,0.292,7.107,0.641c3.729,0.349,6.446,0.641,8.156,0.874c1.708,0.233,4.155,0.699,7.344,1.398
		c3.184,0.699,5.668,1.476,7.455,2.33c1.786,0.856,3.631,2.04,5.534,3.555c1.901,1.514,3.321,3.282,4.253,5.301
		c1.633,3.496,1.574,7.632-0.175,12.41c-1.747,4.777-4.408,8.098-7.981,9.961c-2.33,1.166-4.543,1.477-6.642,0.932
		c-2.099-0.542-4.351-1.573-6.758-3.087c-2.409-1.515-4.72-3.3-6.935-5.359c-2.213-2.058-4.584-4.021-7.105-5.885
		c-2.526-1.864-4.954-3.477-7.282-4.836c-2.332-1.358-4.837-2.039-7.519-2.039c-2.68,0-5.262,0.815-7.748,2.447
		c5.595,5.75,10.156,11.633,13.69,17.653c3.535,6.021,5.786,12.041,6.761,18.061c0.969,6.021,0.058,11.36-2.74,16.022
		c-2.098,3.573-5.709,7.825-10.836,12.758c-5.127,4.935-11.109,9.961-17.943,15.088c-6.837,5.129-14.393,10.432-22.663,15.906
		c-8.272,5.478-16.625,10.586-25.053,15.323c-8.43,4.739-16.779,9.127-25.053,13.166c-8.272,4.04-15.828,7.206-22.663,9.497
		c-6.836,2.293-12.816,3.77-17.944,4.43c-5.127,0.658-8.779-0.061-10.952-2.158C31.86,228.469,32.056,216.857,37.416,198.059z"/>
</g>
<g>
	<path fill="#FFFFFF" d="M35.416,193.059c5.36-18.8,13.593-39.152,24.703-61.06c11.962,11.81,22.488,20.819,31.577,27.035
		c1.242,0.854,2.582,1.146,4.021,0.872c1.437-0.271,2.543-1.028,3.321-2.272c0.776-1.164,1.049-2.446,0.816-3.846
		c-0.233-1.397-0.933-2.522-2.098-3.378c-9.478-6.446-20.315-15.807-32.509-28.081c4.894-9.166,10.098-17.829,15.614-25.985
		c13.36,13.75,25.401,24.276,36.122,31.576c1.166,0.857,2.465,1.148,3.904,0.875c1.437-0.271,2.543-1.028,3.321-2.271
		c0.854-1.165,1.146-2.447,0.874-3.846c-0.272-1.397-0.99-2.524-2.156-3.378c-10.953-7.301-22.954-17.867-36.004-31.694
		c7.225-9.631,13.555-16.197,18.993-19.692c4.428-2.64,9.593-3.67,15.497-3.088c5.902,0.582,11.943,2.292,18.121,5.126
		c6.174,2.837,12.292,6.584,18.352,11.246c1.707-2.873,2.348-5.728,1.922-8.565c-0.428-2.835-1.478-5.302-3.146-7.399
		c-1.673-2.098-3.729-4.311-6.177-6.641c-2.446-2.331-4.797-4.447-7.051-6.351c-2.252-1.902-4.156-4.079-5.707-6.525
		c-1.558-2.447-2.293-4.875-2.215-7.282c0.076-4.271,1.553-8.021,4.426-11.245c2.875-3.223,6.295-5.029,10.256-5.418
		c3.961-0.388,8.078,1.088,12.352,4.428c6.368,5.593,10.176,17.051,11.42,34.375c0.389-1.01,1.066-2.972,2.039-5.885
		c0.969-2.913,1.766-5.107,2.389-6.584c0.621-1.474,1.475-3.514,2.563-6.117c1.086-2.602,2.156-4.661,3.204-6.176
		c1.05-1.515,2.272-3.105,3.67-4.777c1.397-1.67,2.953-2.931,4.662-3.787c1.708-0.854,3.534-1.398,5.477-1.632
		c5.36-0.62,10.738,1.497,16.138,6.351c5.398,4.856,7.983,9.963,7.748,15.323c-0.078,3.263-1.379,6.449-3.901,9.555
		c-2.526,3.108-5.651,5.768-9.38,7.982c-3.729,2.213-7.303,4.04-10.721,5.477c-3.42,1.438-6.525,2.504-9.322,3.204
		c1.009,0.078,3.38,0.292,7.107,0.641c3.729,0.349,6.446,0.641,8.156,0.874c1.708,0.233,4.155,0.699,7.344,1.398
		c3.184,0.699,5.668,1.476,7.455,2.33c1.786,0.856,3.631,2.04,5.534,3.555c1.901,1.514,3.321,3.282,4.253,5.301
		c1.633,3.496,1.574,7.632-0.175,12.41c-1.747,4.777-4.408,8.098-7.981,9.961c-2.33,1.166-4.543,1.477-6.642,0.932
		c-2.099-0.542-4.351-1.573-6.758-3.087c-2.409-1.515-4.72-3.3-6.935-5.359c-2.213-2.058-4.584-4.021-7.105-5.885
		c-2.526-1.864-4.954-3.477-7.282-4.836c-2.332-1.358-4.837-2.039-7.519-2.039c-2.68,0-5.262,0.815-7.748,2.447
		c5.595,5.75,10.156,11.633,13.69,17.653c3.535,6.021,5.786,12.041,6.761,18.061c0.969,6.021,0.058,11.36-2.74,16.022
		c-2.098,3.573-5.709,7.825-10.836,12.758c-5.127,4.935-11.109,9.961-17.943,15.088c-6.837,5.129-14.393,10.432-22.663,15.906
		c-8.273,5.478-16.625,10.586-25.053,15.323c-8.43,4.739-16.779,9.127-25.053,13.166c-8.272,4.04-15.828,7.206-22.663,9.497
		c-6.836,2.293-12.816,3.77-17.944,4.43c-5.127,0.658-8.779-0.061-10.952-2.158C29.86,223.469,30.056,211.857,35.416,193.059z"/>
</g>
<g>
	<path fill="#D46F15" d="M37.416,195.059c5.36-18.8,13.593-39.152,24.703-61.06c11.962,11.81,22.488,20.819,31.577,27.035
		c1.242,0.854,2.582,1.146,4.021,0.872c1.437-0.271,2.543-1.028,3.321-2.272c0.776-1.164,1.049-2.446,0.816-3.846
		c-0.233-1.397-0.933-2.522-2.098-3.378c-9.478-6.446-20.315-15.807-32.509-28.081c4.894-9.166,10.098-17.829,15.614-25.985
		c13.36,13.75,25.401,24.276,36.122,31.576c1.166,0.857,2.465,1.148,3.904,0.875c1.437-0.271,2.543-1.027,3.321-2.271
		c0.854-1.165,1.146-2.446,0.874-3.846c-0.272-1.397-0.99-2.524-2.156-3.378c-10.953-7.301-22.954-17.867-36.004-31.694
		c7.225-9.631,13.555-16.197,18.993-19.692c4.428-2.64,9.593-3.67,15.497-3.088c5.902,0.582,11.943,2.292,18.121,5.126
		c6.174,2.837,12.292,6.584,18.352,11.246c1.707-2.873,2.348-5.728,1.922-8.565c-0.428-2.835-1.478-5.302-3.146-7.399
		c-1.673-2.098-3.729-4.311-6.177-6.641c-2.446-2.331-4.797-4.447-7.051-6.351c-2.252-1.902-4.156-4.079-5.707-6.525
		c-1.558-2.447-2.293-4.875-2.215-7.282c0.076-4.271,1.553-8.021,4.426-11.245c2.875-3.223,6.295-5.029,10.256-5.418
		c3.961-0.388,8.078,1.088,12.352,4.428c6.368,5.593,10.176,17.051,11.42,34.375c0.389-1.01,1.066-2.972,2.039-5.885
		c0.969-2.913,1.766-5.107,2.389-6.584c0.621-1.474,1.475-3.514,2.563-6.117c1.086-2.602,2.156-4.661,3.204-6.176
		c1.05-1.515,2.272-3.105,3.67-4.777c1.397-1.67,2.953-2.931,4.662-3.787c1.708-0.854,3.534-1.398,5.477-1.632
		c5.36-0.62,10.738,1.497,16.138,6.351c5.398,4.856,7.983,9.963,7.748,15.323c-0.078,3.263-1.379,6.449-3.901,9.555
		c-2.526,3.108-5.651,5.768-9.38,7.982c-3.729,2.213-7.303,4.04-10.721,5.477c-3.42,1.438-6.525,2.504-9.322,3.204
		c1.009,0.078,3.38,0.292,7.107,0.641c3.729,0.349,6.446,0.641,8.156,0.874c1.708,0.233,4.155,0.699,7.344,1.398
		c3.184,0.699,5.668,1.476,7.455,2.33c1.786,0.856,3.631,2.04,5.534,3.555c1.901,1.514,3.321,3.282,4.253,5.301
		c1.633,3.496,1.574,7.632-0.175,12.41c-1.747,4.777-4.408,8.098-7.981,9.961c-2.33,1.166-4.543,1.477-6.642,0.932
		c-2.099-0.542-4.351-1.573-6.758-3.087c-2.409-1.515-4.72-3.3-6.935-5.359c-2.213-2.058-4.584-4.021-7.105-5.885
		c-2.526-1.864-4.954-3.477-7.282-4.836c-2.332-1.358-4.837-2.039-7.519-2.039c-2.68,0-5.262,0.815-7.748,2.447
		c5.595,5.75,10.156,11.633,13.69,17.653c3.535,6.021,5.786,12.041,6.761,18.061c0.969,6.021,0.058,11.36-2.74,16.022
		c-2.098,3.573-5.709,7.825-10.836,12.758c-5.127,4.935-11.109,9.961-17.943,15.088c-6.837,5.129-14.393,10.432-22.663,15.906
		c-8.272,5.478-16.625,10.586-25.053,15.323c-8.43,4.739-16.779,9.127-25.053,13.166c-8.272,4.04-15.828,7.206-22.663,9.497
		c-6.836,2.293-12.816,3.77-17.944,4.43c-5.127,0.658-8.779-0.061-10.952-2.158C31.86,225.469,32.056,213.857,37.416,195.059z"/>
</g>
</svg>
